<svg version="1.1" id="Layer_1" xmlns="http://www.w3.org/2000/svg" x="0" y="0" viewBox="0 0 511.984 511.984" style="enable-background:new 0 0 511.984 511.984" xml:space="preserve"><path style="fill:#48cfad" d="M501.313 202.65H223.985c-5.891 0-10.664 4.78-10.664 10.671v213.322c0 5.874 4.773 10.655 10.664 10.655h170.658l74.67 42.687v-42.687h32c5.89 0 10.671-4.781 10.671-10.655V213.321c0-5.891-4.781-10.671-10.671-10.671z"/><path style="fill:#37bc9b" d="M223.985 202.65c-5.891 0-10.664 4.78-10.664 10.671v138.668h159.995c5.891 0 10.672-4.781 10.672-10.688V202.65H223.985z"/><path style="fill:#a0d468" d="M351.989 31.999H10.663C4.772 31.999 0 36.764 0 42.654V319.99c0 5.875 4.772 10.656 10.663 10.656h31.999v63.998l115.192-63.998h194.135c5.891 0 10.656-4.781 10.656-10.656V42.654a10.648 10.648 0 0 0-10.656-10.655z"/><path style="fill:#434a54" d="M234.657 149.307c-.062-34.374-19-53.311-53.312-53.311-16.718 0-29.991 5.062-39.46 15.046-14.944 15.781-13.929 37.921-13.882 38.858h.016c.305 5.625 4.945 10.094 10.64 10.094 5.891 0 10.664-4.781 10.664-10.672 0-.172-.016-.344-.023-.516h.008c0-.141-.477-14.187 8.172-23.187 5.273-5.5 13.304-8.297 23.866-8.297 12.672 0 21.218 3.094 26.116 9.438 3.867 5.016 5.844 12.608 5.859 22.577.016 7.156-6.125 16.328-17.296 25.858-9.719 8.312-19.719 13.828-19.812 13.875l-5.555 3.031-.008 31.874h.031c0 5.891 4.773 10.672 10.664 10.672s10.664-4.781 10.664-10.672c0-.203-.016-.406-.031-.625l.008-18.812c13.03-8.091 42.718-29.372 42.671-55.231zM181.322 245.32c-5.891 0-10.664 4.781-10.664 10.672s4.773 10.656 10.664 10.656 10.664-4.766 10.664-10.656-4.773-10.672-10.664-10.672z"/></svg>