<?xml version="1.0" encoding="iso-8859-1"?>
<!-- Generator: Adobe Illustrator 19.0.0, SVG Export Plug-In . SVG Version: 6.00 Build 0)  -->
<svg version="1.1" id="Layer_1" xmlns="http://www.w3.org/2000/svg" xmlns:xlink="http://www.w3.org/1999/xlink" x="0px" y="0px"
	 viewBox="0 0 511.984 511.984" style="enable-background:new 0 0 511.984 511.984;" xml:space="preserve">
<path style="fill:#48CFAD;" d="M501.313,202.65H223.985c-5.891,0-10.664,4.78-10.664,10.671v213.322
	c0,5.874,4.773,10.655,10.664,10.655h170.658l74.67,42.687v-42.687h32c5.89,0,10.671-4.781,10.671-10.655V213.321
	C511.984,207.43,507.203,202.65,501.313,202.65z"/>
<path style="fill:#37BC9B;" d="M223.985,202.65c-5.891,0-10.664,4.78-10.664,10.671v138.668h159.995
	c5.891,0,10.672-4.781,10.672-10.688V202.65H223.985z"/>
<path style="fill:#A0D468;" d="M351.989,31.999H10.663C4.772,31.999,0,36.764,0,42.654V319.99c0,5.875,4.772,10.656,10.663,10.656
	h31.999v63.998l115.192-63.998h194.135c5.891,0,10.656-4.781,10.656-10.656V42.654C362.645,36.763,357.88,31.999,351.989,31.999z"/>
<g>
	<path style="fill:#434A54;" d="M234.657,149.307c-0.062-34.374-19-53.311-53.312-53.311c-16.718,0-29.991,5.062-39.46,15.046
		c-14.944,15.781-13.929,37.921-13.882,38.858h0.016c0.305,5.625,4.945,10.094,10.64,10.094c5.891,0,10.664-4.781,10.664-10.672
		c0-0.172-0.016-0.344-0.023-0.516h0.008c0-0.141-0.477-14.187,8.172-23.187c5.273-5.5,13.304-8.297,23.866-8.297
		c12.672,0,21.218,3.094,26.116,9.438c3.867,5.016,5.844,12.608,5.859,22.577c0.016,7.156-6.125,16.328-17.296,25.858
		c-9.719,8.312-19.719,13.828-19.812,13.875l-5.555,3.031l-0.008,31.874h0.031l0,0c0,5.891,4.773,10.672,10.664,10.672
		s10.664-4.781,10.664-10.672c0-0.203-0.016-0.406-0.031-0.625l0.008-18.812C205.016,196.447,234.704,175.166,234.657,149.307z"/>
	<path style="fill:#434A54;" d="M181.322,245.32c-5.891,0-10.664,4.781-10.664,10.672s4.773,10.656,10.664,10.656
		s10.664-4.766,10.664-10.656S187.213,245.32,181.322,245.32z"/>
</g>
<g>
</g>
<g>
</g>
<g>
</g>
<g>
</g>
<g>
</g>
<g>
</g>
<g>
</g>
<g>
</g>
<g>
</g>
<g>
</g>
<g>
</g>
<g>
</g>
<g>
</g>
<g>
</g>
<g>
</g>
</svg>
